<?xml version="1.0" encoding="utf-8"?>
<!-- Generator: Adobe Illustrator 25.0.0, SVG Export Plug-In . SVG Version: 6.00 Build 0)  -->
<svg version="1.1" id="圖層_1" xmlns="http://www.w3.org/2000/svg" xmlns:xlink="http://www.w3.org/1999/xlink" x="0px" y="0px"
	 viewBox="0 0 1920 1080" style="enable-background:new 0 0 1920 1080;" xml:space="preserve">
<style type="text/css">
	.st0{fill:url(#SVGID_1_);}
	.st1{fill:url(#SVGID_2_);}
	.st2{fill:url(#SVGID_3_);}
	.st3{fill:url(#SVGID_4_);}
	.st4{fill:url(#SVGID_5_);}
	.st5{fill:url(#SVGID_6_);}
	.st6{fill:url(#SVGID_7_);}
	.st7{fill:url(#SVGID_8_);}
	.st8{fill:url(#SVGID_9_);}
	.st9{fill:url(#SVGID_10_);}
	.st10{fill:url(#SVGID_11_);}
	.st11{fill:url(#SVGID_12_);}
	.st12{fill:url(#SVGID_13_);}
	.st13{fill:url(#SVGID_14_);}
	.st14{fill:url(#SVGID_15_);}
	.st15{fill:url(#SVGID_16_);}
</style>
<g>
	<radialGradient id="SVGID_1_" cx="1089.5869" cy="471.3719" r="301.9141" gradientUnits="userSpaceOnUse">
		<stop  offset="0.4402" style="stop-color:#FFFFFF"/>
		<stop  offset="0.6566" style="stop-color:#F8F9F9"/>
		<stop  offset="0.964" style="stop-color:#E6E7E7"/>
		<stop  offset="1" style="stop-color:#E3E4E4"/>
	</radialGradient>
	<path class="st0" d="M1004,465c-1.6-19.5-1.1-46.5,9.3-59.1c10.4-12.6,18-24.1,35.5-36.1c17.5-12,44.3-18.6,64-15.3
		c19.7,3.3,39.4,9.8,47.6,18.6c8.2,8.7,15.3,2.7,20.8,1.1c5.5-1.6,33.9,2.7,25.2,30.1c-8.7,27.3-26.8,81.5-25.7,106.6
		c1.1,25.2,2.7,30.1,1.1,51.4c-1.6,21.3,3.3,48.7-9.8,77.1c-13.1,28.4-41,54.7-87.5,59.6c-46.5,4.9-85.8-22.4-87.5-51.9
		c-1.6-29.5,7.7-38.8,20.8-42.6c13.1-3.8,27.9-9.3,38.3-1.6c10.4,7.7,37.8,13.8,52,11c14.2-2.8,18-10.4,19.1-41.1
		c1.1-30.6-13.7-35-44.3-33.4C1052.2,541,1009,525.2,1004,465z"/>
	<radialGradient id="SVGID_2_" cx="880.7911" cy="469.052" r="362.0097" gradientUnits="userSpaceOnUse">
		<stop  offset="0.4402" style="stop-color:#FFFFFF"/>
		<stop  offset="0.6566" style="stop-color:#F8F9F9"/>
		<stop  offset="0.964" style="stop-color:#E6E7E7"/>
		<stop  offset="1" style="stop-color:#E3E4E4"/>
	</radialGradient>
	<path class="st1" d="M880.3,616.5c-15.4-7.2-45.7-1.1-59,17.4s-8.9,37-2.2,53.2c6.7,16.2,28.9,28.9,53,25.2
		c24.1-3.7,49.7-9.2,65.7-22.5c15.9-13.3,26-19.7,29.6-32.2c3.7-12.5,9.6-42.6,12.8-56.3c3.2-13.7,5.7-34.7,1.4-53
		c-4.3-18.3-11.8-43.5-17.1-64.2c-5.3-20.7-5.1-39.6-3-60.6c2.1-21,2-35.8-1.2-44.3c-3.2-8.5-12.1-20.9-25.6-20
		c-13.5,0.9-37.8-1.8-47.4-4.7c-9.5-2.9-48-14.9-83.2,11.5c-18.2,13.7-42.9,48.8-36.5,76.5c6.3,27.7,17.1,36.4,18.3,45.3
		c1.1,9,16.1,41.5,40.4,43.1c24.3,1.6,53-19.5,78.5,2.9c8.7,7.7,5.9,13.3,8.1,27.9C919.6,606.8,895.8,623.8,880.3,616.5z"/>
	<radialGradient id="SVGID_3_" cx="1328.5421" cy="473.6919" r="517.7853" gradientUnits="userSpaceOnUse">
		<stop  offset="0.4402" style="stop-color:#FFFFFF"/>
		<stop  offset="0.6566" style="stop-color:#F8F9F9"/>
		<stop  offset="0.964" style="stop-color:#E6E7E7"/>
		<stop  offset="1" style="stop-color:#E3E4E4"/>
	</radialGradient>
	<path class="st2" d="M1202.2,709.4c11.8,13.7,17.8,34.4,55,50c9.8,4.1,31.7,3.6,46.5,5.2c14.8,1.6,36.7,0.1,49.8-2.2
		c55.8-9.8,77.1-35.5,88-50.9c8.8-12.3,15.9-25.2,17.5-37.5c1.6-12.3,2.7-14.6,0.5-38.5c-2.7-30.1-18-68.3-86.9-133.4
		c-11-10.4-37.7-32.8-45.9-40.5c-8.2-7.7-15.3-33.9-7.1-43.2c8.2-9.3,36.1-1.1,43.2,9.3c7.1,10.4,29.5,23,65.1,17.5
		c35.5-5.5,53-33.4,54.1-51.9c1.1-18.6,2.7-32.3-2.7-54.1c-5.5-21.9-28.4-37.2-44.8-42.6c-16.4-5.5-55.2-22.4-102.8-2.7
		c-47.6,19.7-54.7,50.3-65.1,73.8c-8.9,20.2-14.2,86.9,26.2,125.8c13.3,12.7,55.2,45.9,75.5,70.5c20.2,24.6,24.1,49.2,12,60.1
		c-12,10.9-38.3,4.9-51.9-9.3c-13.7-14.2-33.9-24.6-55.2-24.6c-21.3,0-58,3.8-74.4,30.6C1182.3,647.6,1184.4,688.7,1202.2,709.4z"/>
	<radialGradient id="SVGID_4_" cx="542.0778" cy="483.7454" r="484.0481" gradientUnits="userSpaceOnUse">
		<stop  offset="0.4402" style="stop-color:#FFFFFF"/>
		<stop  offset="0.6566" style="stop-color:#F8F9F9"/>
		<stop  offset="0.964" style="stop-color:#E6E7E7"/>
		<stop  offset="1" style="stop-color:#E3E4E4"/>
	</radialGradient>
	<path class="st3" d="M663.4,337c-1.3-48.2-40.4-101.9-128.2-70.8c-73.8,26.1-102.5,145.5-32.4,189.8c18.5,11.7,45.5,26.3,17.3,46.4
		c-18.1,12.9-55.7,35.2-66,54.9c-38.6,73-11.3,139.8,48.3,195.4c23.7,24.6,41.4,26.3,73.9,31.2c31.1,5.1,59.9,19.1,91.8,15.3
		c49.4-5,104.1-30.9,122.5-79c27.4-66.3-23.8-147.4-95.4-113.1c-27.1,13-67.9,51.7-100.5,46.7c-36.9-4.7-41.8-52.6-29.2-81.3
		c16.1-40.6,96.1-51.5,76.5-101.3c-10.6-25.6-72.2,2-83.8-33.4c-8.4-25.7,36.6-24.4,50.7-27.5C653.5,400.8,663.2,364.5,663.4,337z"
		/>
	
		<radialGradient id="SVGID_5_" cx="491.5544" cy="568.1337" r="59.7332" gradientTransform="matrix(0.6546 -0.756 0.756 0.6546 -60.6919 688.0016)" gradientUnits="userSpaceOnUse">
		<stop  offset="0.1196" style="stop-color:#FFF000"/>
		<stop  offset="0.6517" style="stop-color:#FCD300"/>
		<stop  offset="0.8804" style="stop-color:#FAC500"/>
		<stop  offset="1" style="stop-color:#FFE400"/>
	</radialGradient>
	<path class="st4" d="M730.9,671.6c17,14.7,18.9,40.5,4.1,57.5c-14.7,17-40.5,18.9-57.5,4.1c-17-14.7-18.9-40.5-4.1-57.5
		C688.1,658.7,713.9,656.8,730.9,671.6z"/>
	
		<radialGradient id="SVGID_6_" cx="673.0863" cy="225.6801" r="59.7325" gradientTransform="matrix(0.6546 -0.756 0.756 0.6546 -60.6919 688.0016)" gradientUnits="userSpaceOnUse">
		<stop  offset="0.1196" style="stop-color:#FFF000"/>
		<stop  offset="0.6517" style="stop-color:#FCD300"/>
		<stop  offset="0.8804" style="stop-color:#FAC500"/>
		<stop  offset="1" style="stop-color:#FFE400"/>
	</radialGradient>
	<path class="st5" d="M590.9,310.2c17,14.7,18.9,40.5,4.1,57.5c-14.7,17-40.5,18.9-57.5,4.1c-17-14.7-18.9-40.5-4.1-57.5
		C548.1,297.3,573.8,295.4,590.9,310.2z"/>
	
		<radialGradient id="SVGID_7_" cx="821.177" cy="518.3559" r="59.7321" gradientTransform="matrix(0.6077 -0.7942 0.7942 0.6077 -62.7922 758.6515)" gradientUnits="userSpaceOnUse">
		<stop  offset="0.1196" style="stop-color:#FFF000"/>
		<stop  offset="0.6517" style="stop-color:#FCD300"/>
		<stop  offset="0.8804" style="stop-color:#FAC500"/>
		<stop  offset="1" style="stop-color:#FFE400"/>
	</radialGradient>
	<path class="st6" d="M887.2,402.4c17.9,13.7,21.3,39.3,7.6,57.2c-13.7,17.9-39.3,21.3-57.2,7.6c-17.9-13.7-21.3-39.3-7.6-57.2
		C843.7,392.1,869.3,388.7,887.2,402.4z"/>
	
		<radialGradient id="SVGID_8_" cx="941.5006" cy="660.017" r="59.7358" gradientTransform="matrix(0.7207 -0.6932 0.6932 0.7207 -52.4856 609.2286)" gradientUnits="userSpaceOnUse">
		<stop  offset="0.1196" style="stop-color:#FFF000"/>
		<stop  offset="0.6517" style="stop-color:#FCD300"/>
		<stop  offset="0.8804" style="stop-color:#FAC500"/>
		<stop  offset="1" style="stop-color:#FFE400"/>
	</radialGradient>
	<path class="st7" d="M1125.3,419.3c15.6,16.2,15.1,42.1-1.1,57.7c-16.2,15.6-42.1,15.1-57.7-1.1c-15.6-16.2-15.1-42.1,1.1-57.7
		C1083.8,402.6,1109.6,403.1,1125.3,419.3z"/>
	
		<radialGradient id="SVGID_9_" cx="1220.5981" cy="821.3557" r="59.7342" gradientTransform="matrix(0.7071 -0.7071 0.7071 0.7071 -54.8919 630.5425)" gradientUnits="userSpaceOnUse">
		<stop  offset="0.1196" style="stop-color:#FFF000"/>
		<stop  offset="0.6517" style="stop-color:#FCD300"/>
		<stop  offset="0.8804" style="stop-color:#FAC500"/>
		<stop  offset="1" style="stop-color:#FFE400"/>
	</radialGradient>
	<path class="st8" d="M1430.4,334.5c15.9,15.9,15.9,41.7,0,57.7c-15.9,15.9-41.8,15.9-57.7,0c-15.9-15.9-15.9-41.8,0-57.7
		C1388.6,318.5,1414.5,318.6,1430.4,334.5z"/>
	
		<radialGradient id="SVGID_10_" cx="917.3652" cy="957.0957" r="59.7332" gradientTransform="matrix(0.7071 -0.7071 0.7071 0.7071 -54.8919 630.5425)" gradientUnits="userSpaceOnUse">
		<stop  offset="0.1196" style="stop-color:#FFF000"/>
		<stop  offset="0.6517" style="stop-color:#FCD300"/>
		<stop  offset="0.8804" style="stop-color:#FAC500"/>
		<stop  offset="1" style="stop-color:#FFE400"/>
	</radialGradient>
	<path class="st9" d="M1312,644.9c15.9,15.9,15.9,41.7,0,57.7c-15.9,15.9-41.8,15.9-57.7,0c-15.9-15.9-15.9-41.8,0-57.7
		C1270.2,628.9,1296,628.9,1312,644.9z"/>
	<linearGradient id="SVGID_11_" gradientUnits="userSpaceOnUse" x1="542.883" y1="318.194" x2="564.3426" y2="344.8735">
		<stop  offset="5.434780e-03" style="stop-color:#FFFBD0"/>
		<stop  offset="1" style="stop-color:#FFF79A"/>
	</linearGradient>
	<path class="st10" d="M539,337.6c0,0-4.8-1-6.1-4.4c0.2-11.9,15.7-23.5,24.6-23.3c6.8,3.9,5.5,11.7,5.5,11.7S547.3,324.8,539,337.6
		z"/>
	<linearGradient id="SVGID_12_" gradientUnits="userSpaceOnUse" x1="841.5765" y1="410.9916" x2="863.0391" y2="437.6747">
		<stop  offset="5.434780e-03" style="stop-color:#FFFBD0"/>
		<stop  offset="1" style="stop-color:#FFF79A"/>
	</linearGradient>
	<path class="st11" d="M837.7,430.4c0,0-4.8-1-6.1-4.4c0.2-11.9,15.7-23.5,24.6-23.3c6.8,3.9,5.5,11.7,5.5,11.7
		S846,417.6,837.7,430.4z"/>
	<linearGradient id="SVGID_13_" gradientUnits="userSpaceOnUse" x1="1075.3124" y1="422.592" x2="1096.7721" y2="449.2716">
		<stop  offset="5.434780e-03" style="stop-color:#FFFBD0"/>
		<stop  offset="1" style="stop-color:#FFF79A"/>
	</linearGradient>
	<path class="st12" d="M1071.5,442c0,0-4.8-1-6.1-4.4c0.2-11.9,15.7-23.5,24.6-23.3c6.8,3.9,5.5,11.7,5.5,11.7
		S1079.7,429.2,1071.5,442z"/>
	<linearGradient id="SVGID_14_" gradientUnits="userSpaceOnUse" x1="1262.0681" y1="649.3668" x2="1283.5306" y2="676.0499">
		<stop  offset="5.434780e-03" style="stop-color:#FFFBD0"/>
		<stop  offset="1" style="stop-color:#FFF79A"/>
	</linearGradient>
	<path class="st13" d="M1258.2,668.7c0,0-4.8-1-6.1-4.4c0.2-11.9,15.7-23.5,24.6-23.3c6.8,3.9,5.5,11.7,5.5,11.7
		S1266.5,656,1258.2,668.7z"/>
	<linearGradient id="SVGID_15_" gradientUnits="userSpaceOnUse" x1="1380.9667" y1="337.3342" x2="1402.4233" y2="364.0101">
		<stop  offset="5.434780e-03" style="stop-color:#FFFBD0"/>
		<stop  offset="1" style="stop-color:#FFF79A"/>
	</linearGradient>
	<path class="st14" d="M1377.1,356.7c0,0-4.8-1-6.1-4.4c0.2-11.9,15.7-23.5,24.6-23.3c6.8,3.9,5.5,11.7,5.5,11.7
		S1385.4,344,1377.1,356.7z"/>
	<linearGradient id="SVGID_16_" gradientUnits="userSpaceOnUse" x1="685.1722" y1="677.7862" x2="706.6319" y2="704.4657">
		<stop  offset="5.434780e-03" style="stop-color:#FFFBD0"/>
		<stop  offset="1" style="stop-color:#FFF79A"/>
	</linearGradient>
	<path class="st15" d="M681.3,697.2c0,0-4.8-1-6.1-4.4c0.2-11.9,15.7-23.5,24.6-23.3c6.8,3.9,5.5,11.7,5.5,11.7
		S689.6,684.4,681.3,697.2z"/>
</g>
</svg>
