<?xml version="1.0" encoding="utf-8"?>
<!-- Generator: Adobe Illustrator 25.0.0, SVG Export Plug-In . SVG Version: 6.00 Build 0)  -->
<svg version="1.1" id="Flat_Fried_Egg_1_" xmlns="http://www.w3.org/2000/svg" xmlns:xlink="http://www.w3.org/1999/xlink" x="0px"
	 y="0px" viewBox="0 0 4000 4000" style="enable-background:new 0 0 4000 4000;" xml:space="preserve">
<style type="text/css">
	.st0{fill:url(#SVGID_1_);}
	.st1{fill:url(#SVGID_2_);}
	.st2{fill:url(#SVGID_3_);}
	.st3{fill:url(#SVGID_4_);}
	.st4{fill:url(#SVGID_5_);}
	.st5{opacity:0.44;fill:url(#SVGID_6_);}
	.st6{opacity:0.44;fill:url(#SVGID_7_);}
	.st7{opacity:0.65;fill:url(#SVGID_8_);}
	.st8{opacity:0.65;fill:url(#SVGID_9_);}
	.st9{fill:url(#SVGID_10_);}
	.st10{opacity:0.35;fill:url(#SVGID_11_);}
	.st11{opacity:0.35;fill:url(#SVGID_12_);}
	.st12{fill:#242426;}
	.st13{fill:#303032;}
	.st14{fill:url(#SVGID_13_);}
	.st15{opacity:0.5;fill:#B3B3B3;}
	.st16{fill:#F2F2F2;}
	.st17{fill:#F29F0C;}
	.st18{fill:#EF7F0F;}
	.st19{fill:#E6E6E6;}
	.st20{fill:#EAC113;}
	.st21{fill:#F7D546;}
	.st22{fill:#FFFFFF;}
	.st23{fill:url(#SVGID_14_);}
	.st24{fill:url(#SVGID_15_);}
	.st25{fill:url(#SVGID_16_);}
	.st26{fill:url(#SVGID_17_);}
</style>
<g>
	<g>
		
			<linearGradient id="SVGID_1_" gradientUnits="userSpaceOnUse" x1="1755.0815" y1="904.6906" x2="3074.2896" y2="3476.3152" gradientTransform="matrix(0.4467 0.8947 -0.8947 0.4467 2693.2925 -1015.2747)">
			<stop  offset="0" style="stop-color:#EBE8E2"/>
			<stop  offset="0.3456" style="stop-color:#ABA495"/>
			<stop  offset="1" style="stop-color:#858381"/>
		</linearGradient>
		<path class="st0" d="M3089.9,2346.3c33.3,128.9,59.9,268.7,19.5,395c-50.4,157.6-187,294-365,348.1
			c-142.3,43.2-311.2,13.3-450.9,66.6c-213.8,81.6-338.7,291.4-561.2,332.6c-139.4,25.8-367.9-17.1-485.7-105.7
			c-167.8-126.3-321.6-349.4-466.7-508c-180.2-196.9-327.4-526.8-385-824.3c-48.5-250.6-47.4-399.9,140.7-607.2
			c75.8-83.6,190.4-175.6,283.5-232.3c71.6-43.7,94.2-80.5,126.5-135.5c108.5-184.7,570.2-371.1,773.2-346.9
			c133.8,16,178.6,111.8,311.3,136.9c58.6,11.1,335.5-26.6,578.2,75.3c97.1,40.8,182.2,154,232.7,269.4
			c57.8,131.9,89.6,273.4,100.5,420.2c12.4,166.3,42.9,267.1,66.8,370.6C3032.3,2104.7,3066.5,2255.8,3089.9,2346.3z"/>
		<g>
			
				<linearGradient id="SVGID_2_" gradientUnits="userSpaceOnUse" x1="1831.9608" y1="881.1456" x2="1955.6278" y2="1056.6731" gradientTransform="matrix(0.4467 0.8947 -0.8947 0.4467 2693.2925 -1015.2747)">
				<stop  offset="0" style="stop-color:#DBDBDD"/>
				<stop  offset="1" style="stop-color:#B3B3B5"/>
			</linearGradient>
			<path class="st1" d="M2719.6,1059.5c48.3,61.6,83.2,135.3,113.8,210.2c-27.3-24.2-52.1-52.1-73.8-82.9
				c-17.2-24.5-32.4-50.7-50.8-74.1c-38.8-49.4-90.1-83.7-141.9-113.8c-21.3-12.4-45.1-27.2-51.1-53.5
				C2585.1,912.5,2675.7,1003.5,2719.6,1059.5z"/>
			
				<linearGradient id="SVGID_3_" gradientUnits="userSpaceOnUse" x1="1525.6017" y1="1142.2413" x2="1613.0679" y2="1266.3871" gradientTransform="matrix(0.4467 0.8947 -0.8947 0.4467 2693.2925 -1015.2747)">
				<stop  offset="0" style="stop-color:#DBDBDD"/>
				<stop  offset="1" style="stop-color:#B3B3B5"/>
			</linearGradient>
			<path class="st2" d="M2438.9,908c3.4,0.9,7.6,3,7.3,6.9c-14.7,25.6-46,28.7-72.9,28.2c-39-0.6-78-3.2-116.9-7.8
				c-22.9-2.7-78.9-19.6-34.9-46.4c23.9-14.6,75.2-5.4,101.1-3C2361.9,889.5,2400.6,898,2438.9,908z"/>
			
				<linearGradient id="SVGID_4_" gradientUnits="userSpaceOnUse" x1="2921.7205" y1="984.8957" x2="3226.7339" y2="1417.8185" gradientTransform="matrix(0.4467 0.8947 -0.8947 0.4467 2693.2925 -1015.2747)">
				<stop  offset="0" style="stop-color:#DBDBDD"/>
				<stop  offset="1" style="stop-color:#B3B3B5"/>
			</linearGradient>
			<path class="st3" d="M3067.8,2472.7c1.8,10.5,7.3,24.1,16.5,21.6c8.8-91.7-13.8-183.2-36.1-271.9c-10.1-40-20.2-80-30.2-120
				c-13.7-54.6-29.3-112.4-67.1-149.3c2.8,85.6,35.3,204,66.6,291.6C3048,2330.5,3050.2,2382.5,3067.8,2472.7z"/>
			
				<linearGradient id="SVGID_5_" gradientUnits="userSpaceOnUse" x1="3481.7163" y1="1734.5302" x2="3770.0984" y2="2143.8472" gradientTransform="matrix(0.4467 0.8947 -0.8947 0.4467 2693.2925 -1015.2747)">
				<stop  offset="0" style="stop-color:#DBDBDD"/>
				<stop  offset="1" style="stop-color:#B3B3B5"/>
			</linearGradient>
			<path class="st4" d="M2690,3089.2c-121.1,28.1-248.7,0.1-368.8,33.1c62.9-44.5,141.7-42.7,215.7-44.8
				c73.8-2.1,138.3-19.1,206.5-51.2c39.8-18.7,95.6-47.8,138.9-47.8C2854.6,3042.5,2746.4,3076.1,2690,3089.2z"/>
			
				<linearGradient id="SVGID_6_" gradientUnits="userSpaceOnUse" x1="3371.1375" y1="2696.959" x2="3628.9556" y2="3062.895" gradientTransform="matrix(0.4467 0.8947 -0.8947 0.4467 2693.2925 -1015.2747)">
				<stop  offset="0" style="stop-color:#DBDBDD"/>
				<stop  offset="1" style="stop-color:#B3B3B5"/>
			</linearGradient>
			<path class="st5" d="M1839,3385.1c-32.8,18.7-66,37.6-101.6,47.6c-52.7,14.8-108.1,9.5-161.9,0.9
				c-54.4-8.6-108.4-20.4-162.3-32.2c30.8,27.9,69.8,40.8,108.1,51.4c71.7,19.9,146.3,34.2,219,20c84.8-16.5,159.2-69.9,228.8-124.7
				c32.4-25.5,23.6-41.6-13.2-29.6C1916.4,3331.2,1875.7,3364.1,1839,3385.1z"/>
			
				<linearGradient id="SVGID_7_" gradientUnits="userSpaceOnUse" x1="962.8499" y1="2207.5056" x2="1342.4969" y2="2746.3604" gradientTransform="matrix(0.4467 0.8947 -0.8947 0.4467 2693.2925 -1015.2747)">
				<stop  offset="0" style="stop-color:#DBDBDD"/>
				<stop  offset="1" style="stop-color:#B3B3B5"/>
			</linearGradient>
			<path class="st6" d="M1154.4,917.4c-66.5,35.8-134.7,77.9-174.1,148.7c-12.5,22.5-21.7,47.2-34.5,69.5
				c-29.8,51.8-77.6,87.1-127.7,111.1c70.7-7.1,138.5-45.9,185.5-106.3c28.6-36.7,49.4-80.4,77.2-117.8
				c17.6-23.8,151.6-130.8,147.4-142.3C1203.1,889,1178.3,904.5,1154.4,917.4z"/>
			
				<linearGradient id="SVGID_8_" gradientUnits="userSpaceOnUse" x1="1469.9908" y1="3175.7024" x2="1725.7809" y2="3538.7598" gradientTransform="matrix(0.4467 0.8947 -0.8947 0.4467 2693.2925 -1015.2747)">
				<stop  offset="0" style="stop-color:#DBDBDD"/>
				<stop  offset="1" style="stop-color:#B3B3B5"/>
			</linearGradient>
			<path class="st7" d="M397.8,1995.6c2.8,22.6,5.9,45.7,15.4,65.8c1.7,3.7,4,7.6,7.6,8.5c9.3,2.5,12-13.9,10.2-24.5
				c-18.1-105.7-12.6-216.5,15.7-319.3c8.1-29.4-6.2-60.1-30.6-32.6c-17.6,19.8-22.3,70.5-25.5,97
				C382.2,1858.6,389.4,1928,397.8,1995.6z"/>
			
				<linearGradient id="SVGID_9_" gradientUnits="userSpaceOnUse" x1="1301.313" y1="3086.2161" x2="1386.8706" y2="3207.6528" gradientTransform="matrix(0.4467 0.8947 -0.8947 0.4467 2693.2925 -1015.2747)">
				<stop  offset="0" style="stop-color:#DBDBDD"/>
				<stop  offset="1" style="stop-color:#B3B3B5"/>
			</linearGradient>
			<path class="st8" d="M448.1,1615.1c-0.6,3.2-1,6.6,0.4,9.4c2.4,4.9,8.6,4.9,13.4,3.5c15.2-4.4,28.4-15.9,38.1-29.9
				c8.8-12.7,41.1-82.5,3.7-65.5C475.7,1545.3,454,1582.9,448.1,1615.1z"/>
			
				<linearGradient id="SVGID_10_" gradientUnits="userSpaceOnUse" x1="1229.0013" y1="1586.6322" x2="1271.5923" y2="1647.0841" gradientTransform="matrix(0.4467 0.8947 -0.8947 0.4467 2693.2925 -1015.2747)">
				<stop  offset="0" style="stop-color:#DBDBDD"/>
				<stop  offset="1" style="stop-color:#B3B3B5"/>
			</linearGradient>
			<path class="st9" d="M1812,790.6c10.2,4.8,20.3,9.6,30.5,14.4c23.6,11.1,49.2,24.2,60.5,50.3c-4.5,11.3-18.9,9.9-29.4,6.6
				c-21.7-6.8-43.5-13.5-65.2-20.3c-33.6-10.4-68.2-21.4-95.7-45.9c-1.4-1.3-3-3-2.7-5.1c0.2-1.5,1.3-2.5,2.4-3.4
				C1746.4,758.4,1775.7,773.5,1812,790.6z"/>
			
				<linearGradient id="SVGID_11_" gradientUnits="userSpaceOnUse" x1="2506.386" y1="3386.7917" x2="2560.1101" y2="3463.0452" gradientTransform="matrix(0.4467 0.8947 -0.8947 0.4467 2693.2925 -1015.2747)">
				<stop  offset="0" style="stop-color:#DBDBDD"/>
				<stop  offset="1" style="stop-color:#B3B3B5"/>
			</linearGradient>
			<path class="st10" d="M826.3,2804.5c3.4,5.9,6.7,12.3,7.2,19.4c0.5,7.1-2.5,15-8.4,17.3c-5.1,2-10.6-0.4-15.5-3
				c-34.1-17.9-65.1-43.7-90.6-75.2c-26.7-33-35.7-75.6,13.1-49.6C770.1,2733.7,803.3,2764.4,826.3,2804.5z"/>
			
				<linearGradient id="SVGID_12_" gradientUnits="userSpaceOnUse" x1="2217.5696" y1="3420.5032" x2="2276.1719" y2="3503.6809" gradientTransform="matrix(0.4467 0.8947 -0.8947 0.4467 2693.2925 -1015.2747)">
				<stop  offset="0" style="stop-color:#DBDBDD"/>
				<stop  offset="1" style="stop-color:#B3B3B5"/>
			</linearGradient>
			<path class="st11" d="M643.5,2567.8c2.5,7.8,3.7,18.5-2.6,22.5c-2.3,1.4-5,1.5-7.5,1.2c-13.6-1.8-23.7-14.9-31.8-27.4
				c-11-16.9-62.7-88.8-27.4-89.5C606.7,2474,635,2541.2,643.5,2567.8z"/>
		</g>
	</g>
	<g>
		<path class="st12" d="M698.8,882.2c-4.7,1.4-9.8,0.3-14.2-1.9c-17.9-8.9-22.6-33.2-17.5-52.5c5.1-19.4,17.2-36,24.9-54.5
			c11.1-26.4,12.9-55.7,20.9-83.2c11.2-38.7,34.9-73.9,67.6-97.4c32.7-23.5,74.2-34.9,114.1-29.6c14.9,2,29.5,6.2,44,10.3
			c24,6.9,48,13.8,72,20.7c7,2,14.1,4.1,19.9,8.5c5.8,4.4,10.1,11.5,8.9,18.7c-0.6,3.9-2.8,7.4-5.1,10.6
			c-24.6,33.6-69.7,42.6-108.8,56.9c-55.1,20.2-105.3,56.3-136.9,105.8c-11.8,18.4-21.7,39.8-39.4,53.4c-7.8,6-17,8-25.1,13.1
			C715.1,867,709.2,879.2,698.8,882.2z"/>
		<path class="st13" d="M721.5,845.4c6.2-5.4,13.8-9,20.4-13.9c17.1-12.9,26-33.7,37.6-51.6c23.7-36.4,60.2-62.6,98.8-82.5
			c38.6-19.8,79.8-34.1,119.4-52c6.4-2.9,12.9-6,17.7-11.2c4.8-5.2,7.4-12.9,4.7-19.4c-3.7-8.8-14.6-11.4-24.1-12.9
			c-29.2-4.5-58.5-9.1-87.7-13.6c-12.2-1.9-24.6-3.8-37-2.9c-30.8,2.3-58.1,21.9-77.2,46.3c-19,24.3-31.2,53.2-43.9,81.4
			c-12.7,28.2-26.6,56.5-48.3,78.5c-11.9,12.1-27.5,31.5-24.4,50.3C682.4,870.9,708.1,856.9,721.5,845.4z"/>
		
			<linearGradient id="SVGID_13_" gradientUnits="userSpaceOnUse" x1="1267.0774" y1="162.794" x2="1380.5168" y2="323.805" gradientTransform="matrix(0.8882 -0.4594 0.4594 0.8882 -474.6396 1117.2041)">
			<stop  offset="0" style="stop-color:#DBDBDD"/>
			<stop  offset="1" style="stop-color:#B3B3B5"/>
		</linearGradient>
		<path class="st14" d="M702.7,781c18.3-31.4,16.6-71.6,28.6-106.2c11.7-34,37.2-62.2,69.2-76.7c30.8-13.9,66-15.2,100.2-12.4
			c14.9,1.2,31.1,3.8,41.7,15.1c-17.9,5.6-35.9,11.2-53.8,16.8c-16.2,5.1-32.6,10.2-47.3,18.8C823,647,808,662.4,794.7,679
			c-18.2,22.5-33.8,47.3-46.4,73.8c-4.8,10-9.1,20.3-15.6,29.2c-7.7,10.6-18,18.9-26.5,28.8c-7.8,9.1-10.9,18-13.9,29.5
			c-1.7,6.5-2.1,19-12.8,8.3C661.3,830.3,694.8,794.4,702.7,781z"/>
	</g>
	<g id="Flat_Fried_Egg_2_">
		<path class="st15" d="M357.1,2080c-18.7-260.4,299.7-367.2,352.1-604.9c52.8-239.4-23.1-319.8,115.7-511.2
			c55.8-76.9,274.1-299.6,501.7-286.2c122.9,7.3,391.5,160,543.3,140c185.6-24.5,445.3-181.1,661.2-103.7
			c436.7,156.5,186.3,531.8,361.6,796.2c173,260.9,327,213.3,448.2,565.9c122.6,356.7,2.6,624.3-136.6,778.7
			c-282.8,313.6-600.2,125-882.1,288.5c-174.6,101.2-432.5,518.5-1037.7,275.2c-354-142.4-189.4-593.7-332.5-767.9
			C752.1,2407.2,373.2,2304.4,357.1,2080z"/>
		<path class="st16" d="M342,2024.9c0-256.7,294.7-361.1,346.2-594.9c51.9-235.4-22.7-314.5,113.8-502.8
			c54.9-75.7,269.6-294.7,493.4-281.4c120.9,7.2,385,157.3,534.3,137.6c182.5-24.1,437.9-178.1,650.3-102
			c429.5,153.9,183.3,523,355.7,783c170.1,256.5,321.6,209.8,440.8,556.6c120.6,350.8,2.6,614-134.3,765.8
			c-278.1,308.4-590.2,123-867.5,283.7c-171.7,99.5-425.4,510-1020.5,270.6c-348.1-140-275.5-502.2-416.2-673.5
			C641.2,2428.3,342,2342.3,342,2024.9z"/>
		<circle class="st17" cx="1798" cy="2057.7" r="627.6"/>
		<g>
			<path class="st18" d="M2331.6,1727.1c18.3,58.9,28.2,121.6,28.2,186.6c0,346.6-281,627.6-627.6,627.6
				c-225.3,0-422.9-118.7-533.6-297c79.5,255.5,317.8,441,599.4,441c346.6,0,627.6-281,627.6-627.6
				C2425.6,1936.4,2391.2,1823.1,2331.6,1727.1z"/>
		</g>
		<path class="st19" d="M3276.5,2021.2c-82-238.5-179.2-290.9-287.3-383.8l0,0c171.9,315.3,261.8,440.2,148.3,803.3
			c-92.5,295.9-424.6,346.6-721.4,449.1c-420.3,145.1-526.2,502.7-1026.8,374c-298.2-76.7-351.9-431.4-374.6-522.2
			c-22.7-90.8-99.3-232.7-357.6-380.3s-246-334.4-209.8-587c-59,71.4-105.2,149.1-105.2,250.7c0,317.4,299.2,403.4,496,642.8
			c140.7,171.2,68.1,533.5,416.2,673.5c595.2,239.4,848.8-171.1,1020.5-270.6c277.3-160.7,589.4,24.7,867.5-283.7
			C3279.1,2635.2,3397,2371.9,3276.5,2021.2z"/>
		<path class="st20" d="M1226.4,2175.5c-55.9-360.4,229.8-685.3,563.3-691c265.3-4.5,372.7,115.2,411.4,152.8
			c57.7,56.1,36.6,127.1-57.7,76.9c-237.3-126.2-451.3-49.5-619.1,85.2c-157.4,126.3-198,286.5-230.3,374.5
			C1278.9,2214.8,1240.5,2230.8,1226.4,2175.5z"/>
		<path class="st21" d="M1374.8,1720.3c30.3-39.3,53.1-73.8,134.5-123.3c38.8-20.2,57,19.8,34.4,29.6
			c-100.9,43.8-145.7,100.3-152.6,108.5C1375.8,1753.1,1356.9,1742.9,1374.8,1720.3z"/>
		<path class="st21" d="M1359.1,1750.8c-3.8,0.4-7.2,3.4-8.2,7.1c-0.6,2.1-0.4,4.3-0.7,6.4c-0.2,1.8-0.7,3.8,0.6,5.1
			c0.8,0.8,2,1,3.1,1.1c1.4,0.1,2.7,0.3,4.1,0.4c2.8,0.3,6,0.4,7.9-1.7c1-1.2,1.3-2.8,1.6-4.3c0.2-1.3,0.5-2.5,0.7-3.8
			c0.3-1.5,0.5-3,0.3-4.4c-0.4-2.1-1.7-4.7-3.8-4.7L1359.1,1750.8z"/>
		<path class="st22" d="M2425.6,667c-10.2-1.5-20.7-3-31.4-4.4c-192.5-18.9-405.9,99.9-564.5,120.9
			c-149.3,19.7-413.5-130.5-534.3-137.6C1071.6,632.6,856.9,851.6,802,927.3c-136.5,188.3-61.9,267.3-113.8,502.8
			c-2,9.3-4.5,18.3-7.2,27.2c52.6-117.8,48.5-268.6,69.7-336.3c34.5-110.3,213.9-401.1,505.2-431.4
			c218.5-22.7,306.5,178.8,604.5,130.5S2139.6,658.7,2425.6,667z"/>
	</g>
	<g>
		<path class="st12" d="M3370.4,2651.9c-15.1,21.6-22.7,51.3-3.8,70.6c13.8,14,36.8,17.6,57.9,20.3c15.9,2,32.5,4,47.9,0
			c10.3-2.7,19.5-8,28.2-13.5c16.9-10.7,32.8-22.7,47.4-35.7c16.9-15,33-34.1,29.7-54.8c-5.2-32.9-62.5-58.2-98-55.6
			C3436.4,2586.3,3391.6,2621.4,3370.4,2651.9z"/>
		<path class="st13" d="M3370.7,2673.4c-1.4,10.2,0,21.2,7.2,29.5c13.5,15.6,40.4,15.4,63,13.6c11.9-0.9,23.9-1.9,35.2-5.4
			c18.8-5.8,33.7-18,47.9-30.1c12.8-10.9,26.2-23.4,26.9-38.8c1.7-36.7-63.9-55.7-98.3-48.2
			C3414.1,2602.5,3375.4,2640.2,3370.7,2673.4z"/>
		<linearGradient id="SVGID_14_" gradientUnits="userSpaceOnUse" x1="3433.8201" y1="2602.9556" x2="3497.7344" y2="2693.6729">
			<stop  offset="0" style="stop-color:#DBDBDD"/>
			<stop  offset="1" style="stop-color:#B3B3B5"/>
		</linearGradient>
		<path class="st23" d="M3383.6,2667.7c-1.1,4.1-1.1,9.7,3.6,11c2.6,0.7,5.3-0.4,7.7-1.4c41.4-17.7,85.7-30.4,131.2-37.5
			c4.6-0.7,9.4-1.4,13.2-3.7c7.2-4.3,8.8-13.5,5-20.3c-3.8-6.8-11.7-11.3-20.1-13.4c-8.4-2.1-29.1-7-37.9-7
			c-15.8-0.1-35.7,2-60.8,15.2C3402.6,2622.5,3389.8,2645.2,3383.6,2667.7z"/>
	</g>
	<g>
		<path class="st12" d="M3289.2,2861.8c-6.3,6.8-10.9,16.7-9.9,26.8c0.3,2.7,0.9,5.4,2.1,7.8c2.4,4.8,6.6,8,11,10.1
			c17.3,8.2,37.2,1.5,53.7-8.7c7.9-4.9,15.5-10.6,21.5-18.4c6-7.8,10.2-17.9,10.3-28.4c0-3.5-0.5-7.3-2.5-9.9
			C3355.9,2815.8,3305,2844.8,3289.2,2861.8z"/>
		<path class="st13" d="M3301.5,2855.5c-5.3,4-10.5,8.7-13.2,15.4c-2.9,7.1-2.5,15.9,1.1,22.6c1.3,2.4,3,4.6,5.1,5.9
			c4.1,2.5,9,1.6,13.6,0.6c11.9-2.6,23.9-5.2,34.7-11.6c8.5-5,16.1-12.3,22-21.2c4.4-6.6,7.9-16.1,4.2-23.3
			c-3.2-6.2-10.2-7.6-16.3-7.7C3334.1,2836.1,3317.1,2843.7,3301.5,2855.5z"/>
		<linearGradient id="SVGID_15_" gradientUnits="userSpaceOnUse" x1="3314.947" y1="2846.4202" x2="3340.6946" y2="2882.9651">
			<stop  offset="0" style="stop-color:#DBDBDD"/>
			<stop  offset="1" style="stop-color:#B3B3B5"/>
		</linearGradient>
		<path class="st24" d="M3311.9,2849.5c-4.9,2.3-9.3,6.1-13.4,10.1c-6.3,6.1-12.7,14.7-11,24.1c11.4-3.7,22.7-7.5,34.1-11.2
			c15.3-5,30.7-10.1,44.7-19c1.2-0.8,2.5-1.7,3-3.2c1.2-3.7-2.8-6.5-6.1-7.4C3344.7,2837.9,3329.2,2841.3,3311.9,2849.5z"/>
	</g>
	<g>
		<path class="st12" d="M709.2,2914.6c-11.2-2.1-24.4,0.2-28.6,11.1c-3.1,8-0.4,17.7,2.3,26.5c2,6.7,4.2,13.6,8.6,18.9
			c2.9,3.6,6.6,6.3,10.4,8.7c7.3,4.8,14.8,8.9,22.6,12.4c9,4,19.4,6.9,27,2c12.1-7.9,11.8-35.1,4.5-48.7
			C747,2929,725.1,2917.5,709.2,2914.6z"/>
		<path class="st13" d="M700.8,2918.5c-4.3,1.3-8.4,3.8-10.4,8.1c-3.8,8.1,1.1,18.7,5.9,27.3c2.5,4.5,5,9.1,8.4,13
			c5.6,6.4,13.2,10.1,20.5,13.6c6.6,3.1,13.9,6.2,20.2,3.7c14.8-5.9,10.6-35.2,1.5-47.5C736.6,2923.1,714.8,2914.5,700.8,2918.5z"/>
		
			<linearGradient id="SVGID_16_" gradientUnits="userSpaceOnUse" x1="2559.1152" y1="3402.5764" x2="2586.8572" y2="3441.9519" gradientTransform="matrix(0.4119 0.9112 -0.9112 0.4119 2786.1926 -802.6302)">
			<stop  offset="0" style="stop-color:#DBDBDD"/>
			<stop  offset="1" style="stop-color:#B3B3B5"/>
		</linearGradient>
		<path class="st25" d="M705.3,2922.6c-1.8,0.3-4,1.3-3.7,3.4c0.2,1.1,1.1,2,1.9,2.8c14.4,13.2,27.3,28.5,38.3,45.2
			c1.1,1.7,2.2,3.4,3.8,4.5c3,2.1,6.9,1.1,8.9-1.6c2-2.7,2.4-6.7,1.7-10.4c-0.7-3.7-2.5-12.8-4-16.2c-2.8-6.2-7.2-13.8-16.9-21.3
			C726.6,2922.1,715.4,2921.1,705.3,2922.6z"/>
	</g>
	<g>
		<path class="st12" d="M611.7,2920c-3.8-1.3-8.6-1.3-12.4,0.9c-1,0.6-2,1.3-2.7,2.2c-1.5,1.8-2,4-2,6.1c-0.2,8.3,6.1,15,13.1,19.7
			c3.3,2.3,7,4.3,11.1,5.2s8.9,0.8,13.1-1c1.4-0.6,2.8-1.5,3.5-2.8C641.8,2938.1,621.3,2923.2,611.7,2920z"/>
		<path class="st13" d="M616.4,2923.7c-2.5-1.4-5.3-2.6-8.5-2.5c-3.3,0.1-6.7,1.9-8.7,4.5c-0.7,0.9-1.3,2-1.4,3.1
			c-0.3,2.1,1,3.9,2.2,5.5c3.1,4.2,6.3,8.5,10.8,11.6c3.5,2.5,7.8,4.2,12.3,4.9c3.4,0.6,7.8,0.3,9.9-2.5c1.9-2.4,1.2-5.4,0.1-7.8
			C629.9,2933.2,623.8,2927.8,616.4,2923.7z"/>
		
			<linearGradient id="SVGID_17_" gradientUnits="userSpaceOnUse" x1="2507.5188" y1="3508.2515" x2="2518.6946" y2="3524.1138" gradientTransform="matrix(0.4119 0.9112 -0.9112 0.4119 2786.1926 -802.6302)">
			<stop  offset="0" style="stop-color:#DBDBDD"/>
			<stop  offset="1" style="stop-color:#B3B3B5"/>
		</linearGradient>
		<path class="st26" d="M620.6,2926.8c-1.8-1.5-4.1-2.6-6.4-3.5c-3.5-1.4-8.1-2.4-11.5,0c3.5,3.8,7,7.7,10.5,11.5
			c4.7,5.1,9.5,10.3,15.5,14.3c0.5,0.3,1.1,0.7,1.8,0.6c1.7-0.2,2.1-2.3,1.8-3.7C631.1,2937.7,627,2932.2,620.6,2926.8z"/>
	</g>
</g>
</svg>
