<?xml version="1.0" encoding="utf-8"?>
<!-- Generator: Adobe Illustrator 25.0.0, SVG Export Plug-In . SVG Version: 6.00 Build 0)  -->
<svg version="1.1" id="圖層_1" xmlns="http://www.w3.org/2000/svg" xmlns:xlink="http://www.w3.org/1999/xlink" x="0px" y="0px"
	 viewBox="0 0 100 100" style="enable-background:new 0 0 100 100;" xml:space="preserve">
<style type="text/css">
	.st0{fill:#D0DBE0;}
	.st1{opacity:0.15;}
	.st2{fill:#4C576E;}
	.st3{opacity:0.25;fill:#4C576E;}
	.st4{fill:#A8B9BF;}
	.st5{opacity:0.15;fill:#4C576E;}
	.st6{opacity:0.75;}
	.st7{fill:#FFFFFF;}
	.st8{opacity:0.35;fill:#FFFFFF;}
	.st9{opacity:0.15;fill:#FFFFFF;}
	.st10{opacity:0.35;}
</style>
<g>
	<g>
		<path class="st0" d="M78.6,84.1l0.5-0.6c0,0,0.4,0.3,1,0.6c0.9,0.4,2.2,0.8,3.3-0.2c1-1,0.7-2.3,0.2-3.2c-0.3-0.6-0.6-1-0.7-1
			l0.6-0.5c0.2,0.2,0.4,0.5,0.6,0.8c0.7,1.2,1.3,3-0.1,4.4c-1.4,1.4-3.2,0.9-4.4,0.2C79.1,84.5,78.8,84.3,78.6,84.1z"/>
	</g>
	<g class="st1">
		<path class="st2" d="M83.5,83.7c1.6-1.6-0.2-3.9-0.4-4.2l-0.2,0.2c0.1,0.1,2,2.4,0.6,4.1C83.5,83.8,83.5,83.8,83.5,83.7z"/>
		<path class="st2" d="M83.9,84.5c0,0,0.1-0.1,0.1-0.1c-1.7,1.6-4.1,0.4-5.2-0.5l0.3-0.3c0,0,0,0,0,0l-0.5,0.6
			C79.7,85,82.2,86.3,83.9,84.5z"/>
	</g>
	<path class="st3" d="M84,80.1c-0.1,0.2-0.3,0.4-0.5,0.7c-0.3-0.6-0.6-1-0.7-1l0.6-0.5C83.6,79.5,83.8,79.8,84,80.1z"/>
	<path class="st3" d="M78.6,84.1l0.5-0.6c0,0,0.4,0.3,1,0.6c-0.2,0.2-0.4,0.4-0.6,0.5C79.1,84.5,78.8,84.3,78.6,84.1z"/>
	
		<rect x="56.2" y="32.7" transform="matrix(0.7071 -0.7071 0.7071 0.7071 -24.7559 57.9458)" class="st4" width="2.7" height="52.4"/>
	<path class="st4" d="M29.2,45.3c0.5,0.2,1,0.2,1.5,0.2l9.5-1.4c0.2,0,0.4-0.1,0.5-0.1c0.9-0.3,1.6-1,1.9-1.9
		c0.1-0.2,0.1-0.4,0.1-0.5l1.4-9.5c0.1-0.5,0-1.1-0.2-1.5c-0.1-0.4-0.4-0.8-0.7-1.1L28.9,15c-1.2-1.2-3.1-1.2-4.3,0L13.7,25.9
		c-1.2,1.2-1.2,3.1,0,4.3l14.4,14.4C28.4,44.9,28.8,45.1,29.2,45.3z M26.1,19.5c-0.4-0.4-0.4-1,0-1.3c0.4-0.4,1-0.4,1.3,0l11.4,11.4
		c0.4,0.4,0.4,1,0,1.3c-0.2,0.2-0.4,0.3-0.7,0.3c-0.2,0-0.5-0.1-0.7-0.3L26.1,19.5z M23,22.5c-0.4-0.4-0.4-1,0-1.3
		c0.4-0.4,1-0.4,1.3,0l11.4,11.4c0.4,0.4,0.4,1,0,1.3c-0.2,0.2-0.4,0.3-0.7,0.3c-0.2,0-0.5-0.1-0.7-0.3L23,22.5z M19.9,25.6
		c-0.4-0.4-0.4-1,0-1.3c0.4-0.4,1-0.4,1.3,0l11.4,11.4c0.4,0.4,0.4,1,0,1.3c-0.2,0.2-0.4,0.3-0.7,0.3c-0.2,0-0.5-0.1-0.7-0.3
		L19.9,25.6z M16.9,28.7c-0.4-0.4-0.4-1,0-1.3c0.4-0.4,1-0.4,1.3,0l11.4,11.4c0.4,0.4,0.4,1,0,1.3c-0.2,0.2-0.4,0.3-0.7,0.3
		c-0.2,0-0.5-0.1-0.7-0.3L16.9,28.7z"/>
	
		<rect x="56.8" y="32.7" transform="matrix(0.7071 -0.7071 0.7071 0.7071 -24.5877 58.3517)" class="st0" width="2.7" height="52.4"/>
	<path class="st0" d="M29.8,45.3c0.5,0.2,1,0.2,1.5,0.2l4-0.6l5.5-0.8c0.2,0,0.4-0.1,0.5-0.1c0.9-0.3,1.6-1,1.9-1.9
		c0.1-0.2,0.1-0.4,0.1-0.5l0.1-0.4L44,37l0.2-1.6l0.1-0.8l0.4-2.6c0.1-0.5,0-1.1-0.2-1.5c-0.1-0.4-0.4-0.8-0.7-1.1L29.5,15
		c-1.2-1.2-3.1-1.2-4.3,0L14.3,25.9c-0.9,0.9-1.1,2.3-0.6,3.4c0.1,0.3,0.4,0.6,0.6,0.9l14.4,14.4C29,44.9,29.4,45.1,29.8,45.3z
		 M26.7,19.5c-0.4-0.4-0.4-1,0-1.3c0.4-0.4,1-0.4,1.3,0l11.4,11.4c0.4,0.4,0.4,1,0,1.3c-0.2,0.2-0.4,0.3-0.7,0.3
		c-0.2,0-0.5-0.1-0.7-0.3L26.7,19.5z M23.6,22.5c-0.4-0.4-0.4-1,0-1.3c0.4-0.4,1-0.4,1.3,0l11.4,11.4c0.2,0.2,0.3,0.6,0.2,0.9
		c0,0.2-0.1,0.3-0.2,0.4c-0.2,0.2-0.4,0.3-0.7,0.3c-0.2,0-0.5-0.1-0.7-0.3L23.6,22.5z M20.5,25.6c-0.4-0.4-0.4-1,0-1.3s1-0.4,1.3,0
		l11.4,11.4c0.4,0.4,0.4,1,0,1.3c-0.2,0.2-0.4,0.3-0.7,0.3c-0.2,0-0.5-0.1-0.7-0.3L20.5,25.6z M17.4,28.7c-0.4-0.4-0.4-1,0-1.3
		c0.4-0.4,1-0.4,1.3,0l11.4,11.4c0.4,0.4,0.4,1,0,1.3c-0.2,0.2-0.4,0.3-0.7,0.3c-0.2,0-0.5-0.1-0.7-0.3L17.4,28.7z"/>
	<path class="st5" d="M29.8,45.3c3.8-3.8,10.1-10.1,13.6-13.6c0.4-0.4,0.8-0.8,1.2-1.2c0.2,0.5,0.2,1,0.2,1.5l0,0.3l-1.3,9l0,0.2
		c0,0.2-0.1,0.4-0.1,0.5l0.7,0.7c-0.7,0.5-1.2,1-1.1,1.4c0.2,1.2,3.3,4.6,5.9,5.3c0.5,0.1,1.1,0,1.6-0.3l5.3,5.3
		c-1,0.5-0.7,2.2-1.3,2.5L41.3,43.9c0,0-0.1,0-0.1,0c-0.1,0-0.3,0.1-0.4,0.1l-4,0.6l-5.5,0.8C30.8,45.5,30.3,45.5,29.8,45.3z"/>
	<path class="st3" d="M77.5,80.1L51.8,54.4c0.6-0.7,1.3-1.3,1.9-1.9l25.6,25.6L77.5,80.1z"/>
	<path class="st2" d="M77.7,84.6L52.6,59.5c-0.9-0.9,0.3-2.8,1.9-4.3c0.9-0.9,2-1.6,2.9-2c0.6-0.2,1.1-0.2,1.4,0.1l25.1,25.1
		c0.2,0.2,0,0.6-0.3,1.1c-0.5,0.7-1.3,1.7-2.2,2.6c-0.5,0.5-1,1-1.5,1.4C78.9,84.4,78,84.9,77.7,84.6z"/>
	<path class="st5" d="M36.8,44.7c1.1-1.1,2.3-2.4,3.5-3.6c2.3-2.5,3-6.4,3.1-9.4c0.4-0.4,0.8-0.8,1.2-1.2c0.2,0.5,0.2,1,0.2,1.5
		l0,0.3l-1.3,9l0,0.2c0,0.2-0.1,0.4-0.1,0.5l0.1,0.1L41.2,44c-0.1,0-0.3,0.1-0.4,0.1L36.8,44.7z"/>
	<g class="st6">
		<path class="st7" d="M25.3,15.5c-2.1,2.3-4.2,4.5-6.4,6.7c-1.1,1.1-2.2,2.2-3.2,3.3l-0.4,0.4l-0.2,0.2L15,26.3
			c-0.2,0.3-0.3,0.6-0.4,1c-0.2,0.7,0,1.4,0.3,2c0.1,0.2,0.2,0.3,0.3,0.4l0.2,0.2l0.2,0.2l0.8,0.8l1.6,1.6c1.1,1.1,2.2,2.2,3.2,3.3
			c2.2,2.2,4.3,4.4,6.4,6.7c-2.3-2.1-4.5-4.2-6.7-6.4c-1.1-1.1-2.2-2.2-3.3-3.2L16,31.4l-0.8-0.8l-0.2-0.2l-0.2-0.2
			c-0.1-0.2-0.3-0.3-0.4-0.5c-0.4-0.7-0.5-1.6-0.4-2.5c0.1-0.4,0.3-0.8,0.5-1.2l0.2-0.3l0.2-0.2c0.1-0.1,0.3-0.3,0.4-0.4
			c1.1-1.1,2.2-2.2,3.3-3.2C20.8,19.7,23.1,17.6,25.3,15.5z"/>
	</g>
	<path class="st8" d="M21.1,19.1l3.5-3.5c3,1.1,6.1,2.2,8.6,3.2l10.4,10.4c-2.3-1.1-5.3-2.4-8.4-3.8L28,18.1c-0.4-0.4-1-0.4-1.3,0
		c-0.4,0.4-0.4,1,0,1.3l3.8,3.8C27.2,21.8,24,20.4,21.1,19.1z"/>
	<path class="st8" d="M15.3,24.8l2.7-2.7l9.7,4.6l7.2,7.2c0.2,0.2,0.4,0.3,0.7,0.3c0.2,0,0.5-0.1,0.7-0.3c0.1-0.1,0.2-0.3,0.2-0.4
		c0.1-0.3,0-0.6-0.2-0.9l-3.5-3.5l8.9,4.2c-1.3,1.3-2.8,2.8-4.3,4.3c-1.8-1-3.6-2.1-5.5-3.2L21.8,24.3c-0.4-0.4-1-0.4-1.3,0
		s-0.4,1,0,1.3l5.2,5.2C21.8,28.5,18.2,26.4,15.3,24.8z"/>
	<path class="st3" d="M77.7,84.6L52.6,59.5c-1.7-1.7,4.7-7.6,6.2-6.2l0.8,0.8c-1.7,0.4-3.5,1.4-4.4,3.5
		c-1.4,3.3,15.5,18.1,24.8,25.9C78.9,84.4,78,84.9,77.7,84.6z"/>
	<path class="st9" d="M81.4,82.1L54.5,55.2c0.9-0.9,2-1.6,2.9-2l26.2,26.2C83.1,80.2,82.3,81.2,81.4,82.1z"/>
	<g class="st10">
		<path class="st7" d="M81.6,77.5c-1.7-1.5-3.4-3.1-5.1-4.7c-0.8-0.8-1.7-1.6-2.5-2.4l-2.5-2.4l-2.4-2.5c-0.8-0.8-1.6-1.6-2.4-2.5
			c-1.6-1.7-3.2-3.3-4.7-5.1c1.7,1.5,3.4,3.1,5.1,4.7c0.8,0.8,1.7,1.6,2.5,2.4l2.5,2.4l2.4,2.5c0.8,0.8,1.6,1.6,2.4,2.5
			C78.4,74.1,80,75.7,81.6,77.5z"/>
	</g>
</g>
</svg>
